<svg xmlns="http://www.w3.org/2000/svg" fill="none" viewBox="0 0 36 36">
  <rect x="17" y="0" width="2" height="6" style="fill:#131313;"/>
  <path d="M28.134,35.553l-3,-5.196l1.649,-1.145l3.083,5.341l-1.732,1Z" style="fill:#131313;"/>
  <path d="M18,7c-4.962,0 -9,4.038 -9,9c0,4.963 4.038,9 9,9c4.963,0 9,-4.037 9,-9c0,-4.962 -4.037,-9 -9,-9m0,20c-6.065,0 -11,-4.935 -11,-11c0,-6.065 4.935,-11 11,-11c6.065,0 11,4.935 11,11c0,6.065 -4.935,11 -11,11" style="fill:#232324;"/>
  <path d="M12.133,24.161l1.733,1l-6,10.392l-1.733,-1.001l6,-10.391Z" style="fill:#232324;"/>
  <path d="M33,16c0,8.27 -6.73,15 -15,15c-2.73,0 -5.28,-0.73 -7.48,-2.01l-1,1.73c2.5,1.45 5.4,2.28 8.48,2.28c9.37,0 17,-7.63 17,-17l-2,0Z" style="fill:#232324;"/>
  <style>
    @media (prefers-color-scheme:dark){:root{filter:invert(100%)}}
  </style>
</svg>
